# xmcd
#
# Track frame offsets:
#	150
#	7546
#	29410
#	47420
#	65282
#	83401
#	101251
#	122161
#	138499
#	162743
#	188635
#	210151
#	236135
#
# Disc length: 3479 seconds
#
# Revision: 1
# Processed by: cddbd v1.5.2PL0 Copyright (c) Steve Scherf et al.
# Submitted via: audiograbber 1.83.01
#
DISCID=980d950d
DTITLE=CLÁUDIO RIOS - AO VIVO
DYEAR=1900
DGENRE=FORRÓ
TTITLE0=ABERTURA
TTITLE1=A MORTE DO VAQUEIRO
TTITLE2=VAQUEIRO APAIXONADO
TTITLE3=VAQUEIRO VELHO
TTITLE4=VOU FICA NA SUA COLA
TTITLE5=É DIA DE VAQUEJADA
TTITLE6=PALCO DA SAUDADE
TTITLE7=AMIGO BOIOLA
TTITLE8=ÚLTIMO ADEUS DO VAQUEIRO
TTITLE9=LACE O TOURO, MORENA-TODO MUNDO É BOM-SABIÁ-CHORA BANANEIRA
TTITLE10=CANÇÃO DA SAUDADE
TTITLE11=MULHER INGRATA E FINGIDA
TTITLE12=CANÇÃO DO LENÇO
EXTD=
EXTT0=
EXTT1=
EXTT2=
EXTT3=
EXTT4=
EXTT5=
EXTT6=
EXTT7=
EXTT8=
EXTT9=
EXTT10=
EXTT11=
EXTT12=
PLAYORDER=
